# xmcd
#
# Track frame offsets:
#	150
#	18934
#	38557
#	58713
#	79633
#	96295
#
# Disc length: 1470 seconds
#
# Revision: 4
# Processed by: cddbd v1.5.2PL0 Copyright (c) Steve Scherf et al.
# Submitted via: audiograbber 1.83.01
#
DISCID=3c05bc06
DTITLE=BEYONCE - TQM - I Am... Sasha Fierce [CD-1)
DYEAR=2008
DGENRE=Pop
TTITLE0=If I Were A Boy
TTITLE1=Halo
TTITLE2=Disappear
TTITLE3=Broken-Hearted Girl
TTITLE4=Ave Maria
TTITLE5=Satellites
EXTD=
EXTT0=
EXTT1=
EXTT2=
EXTT3=
EXTT4=
EXTT5=
PLAYORDER=
